<svg xmlns="http://www.w3.org/2000/svg" xmlns:xlink="http://www.w3.org/1999/xlink" width="500" zoomAndPan="magnify" viewBox="0 0 375 374.999991" height="500" preserveAspectRatio="xMidYMid meet" version="1.2"><defs><clipPath id="71934b57f4"><path d="M 60 57.65625 L 314 57.65625 L 314 311 L 60 311 Z M 60 57.65625 "/></clipPath><clipPath id="d2cce96f9e"><path d="M 173.296875 72.554688 L 201.796875 72.554688 L 201.796875 83.804688 L 173.296875 83.804688 Z M 173.296875 72.554688 "/></clipPath></defs><g id="b7bbac0c92"><g clip-rule="nonzero" clip-path="url(#71934b57f4)"><path style=" stroke:none;fill-rule:nonzero;fill:#2bb673;fill-opacity:1;" d="M 187.085938 57.714844 C 244.9375 58.257812 294.929688 96.894531 309.664062 152.75 C 325.167969 211.5 295.414062 274.367188 239.667969 299.054688 C 198.929688 317.09375 159.039062 314.324219 120.585938 291.65625 C 119.621094 291.089844 118.007812 290.929688 116.957031 291.308594 C 100.324219 297.265625 83.734375 303.347656 67.132812 309.398438 C 66.796875 309.519531 66.457031 309.769531 66.128906 309.75 C 64.640625 309.660156 62.769531 309.96875 61.804688 309.1875 C 61.136719 308.648438 61.300781 306.378906 61.816406 305.195312 C 65.230469 297.34375 68.839844 289.578125 72.394531 281.785156 C 75.835938 274.238281 79.242188 266.675781 82.769531 259.167969 C 83.511719 257.585938 83.347656 256.484375 82.382812 255.042969 C 49.921875 206.730469 53.929688 144.152344 92.507812 100.5625 C 112.542969 77.925781 137.785156 64.378906 167.621094 59.550781 C 174.042969 58.511719 180.59375 58.304688 187.085938 57.714844 Z M 230.1875 254.96875 C 232.730469 254.363281 235.136719 254.1875 237.179688 253.234375 C 246.640625 248.824219 253.410156 241.617188 257.519531 232.113281 C 259.550781 227.417969 258.902344 222.613281 254.941406 219.050781 C 246.21875 211.203125 236.890625 204.132812 226.320312 198.886719 C 220.738281 196.113281 214.101562 197.496094 209.894531 202.101562 C 208.148438 204.011719 206.46875 205.992188 204.878906 208.035156 C 203.429688 209.902344 201.554688 210.402344 199.402344 209.957031 C 197.828125 209.621094 196.296875 209.148438 194.8125 208.535156 C 184.90625 204.484375 176.878906 197.921875 170.042969 189.820312 C 165.664062 184.632812 162.289062 178.925781 161.070312 172.117188 C 160.582031 169.378906 161.273438 167.234375 163.574219 165.5625 C 165.378906 164.253906 167.078125 162.792969 168.8125 161.386719 C 174.757812 156.570312 176.082031 151.734375 172.675781 144.867188 C 167.507812 134.449219 160.421875 125.359375 151.945312 117.429688 C 147.367188 113.148438 140.855469 112.449219 135.820312 115.820312 C 130.648438 119.285156 125.71875 123.171875 121.003906 127.246094 C 116.15625 131.433594 115.007812 137.03125 116.535156 143.132812 C 119.445312 154.761719 124.742188 165.414062 130.898438 175.570312 C 152.546875 211.265625 182.957031 236.800781 221.59375 252.566406 C 224.363281 253.695312 227.382812 254.199219 230.1875 254.96875 Z M 230.1875 254.96875 "/></g><path style=" stroke:none;fill-rule:nonzero;fill:#ffffff;fill-opacity:1;" d="M 230.1875 254.96875 C 227.382812 254.199219 224.363281 253.695312 221.59375 252.566406 C 182.957031 236.800781 152.546875 211.265625 130.898438 175.570312 C 124.742188 165.414062 119.445312 154.761719 116.535156 143.132812 C 115.007812 137.035156 116.15625 131.433594 121.003906 127.246094 C 125.71875 123.171875 130.648438 119.285156 135.820312 115.820312 C 140.855469 112.449219 147.367188 113.148438 151.945312 117.429688 C 160.417969 125.359375 167.507812 134.449219 172.675781 144.867188 C 176.082031 151.734375 174.757812 156.570312 168.8125 161.386719 C 167.078125 162.792969 165.378906 164.253906 163.574219 165.566406 C 161.273438 167.234375 160.582031 169.378906 161.070312 172.117188 C 162.289062 178.929688 165.664062 184.632812 170.042969 189.820312 C 176.878906 197.925781 184.90625 204.488281 194.808594 208.539062 C 196.296875 209.148438 197.828125 209.625 199.402344 209.957031 C 201.554688 210.402344 203.429688 209.902344 204.878906 208.039062 C 206.46875 205.992188 208.148438 204.011719 209.894531 202.101562 C 214.101562 197.496094 220.738281 196.113281 226.320312 198.886719 C 236.890625 204.132812 246.21875 211.203125 254.941406 219.054688 C 258.902344 222.617188 259.550781 227.417969 257.519531 232.113281 C 253.410156 241.617188 246.640625 248.824219 237.179688 253.234375 C 235.136719 254.1875 232.730469 254.363281 230.1875 254.96875 Z M 230.1875 254.96875 "/><path style=" stroke:none;fill-rule:nonzero;fill:#2bb673;fill-opacity:1;" d="M 175.171875 78.71875 C 175.367188 77.273438 174.90625 76.234375 176.066406 75.28125 C 177.285156 74.277344 179.527344 74.460938 180.964844 74.425781 C 182.960938 74.375 185 74.300781 187.035156 74.285156 L 187.9375 74.289062 C 189.972656 74.3125 192.011719 74.394531 194.007812 74.453125 C 195.445312 74.492188 197.683594 74.320312 198.910156 75.328125 C 200.078125 76.289062 199.621094 77.324219 199.820312 78.773438 L 199.820312 77.785156 C 199.625 79.234375 200.085938 80.273438 198.921875 81.222656 C 197.699219 82.226562 195.460938 82.046875 194.023438 82.082031 C 192.027344 82.128906 189.988281 82.207031 187.953125 82.21875 L 187.050781 82.21875 C 185.015625 82.195312 182.976562 82.109375 180.980469 82.054688 C 179.542969 82.011719 177.304688 82.183594 176.078125 81.175781 C 174.914062 80.21875 175.371094 79.183594 175.167969 77.734375 "/><g clip-rule="nonzero" clip-path="url(#d2cce96f9e)"><path style=" stroke:none;fill-rule:nonzero;fill:#2bb673;fill-opacity:1;" d="M 187.964844 83.953125 L 187.046875 83.949219 C 185.574219 83.933594 184.109375 83.886719 182.6875 83.839844 C 182.101562 83.820312 181.515625 83.804688 180.933594 83.785156 C 180.722656 83.777344 180.496094 83.777344 180.253906 83.777344 C 178.667969 83.769531 176.492188 83.757812 174.980469 82.515625 C 173.65625 81.429688 173.523438 80.179688 173.503906 79.195312 C 173.4375 78.964844 173.421875 78.726562 173.453125 78.488281 C 173.464844 78.402344 173.472656 78.316406 173.480469 78.230469 C 173.472656 78.144531 173.464844 78.058594 173.453125 77.972656 C 173.417969 77.730469 173.433594 77.496094 173.5 77.261719 C 173.515625 76.277344 173.644531 75.027344 174.96875 73.941406 C 176.476562 72.703125 178.65625 72.699219 180.246094 72.699219 C 180.484375 72.699219 180.714844 72.699219 180.925781 72.691406 C 181.507812 72.679688 182.09375 72.664062 182.683594 72.644531 C 184.101562 72.605469 185.566406 72.5625 187.023438 72.554688 L 187.941406 72.554688 C 189.414062 72.570312 190.882812 72.617188 192.300781 72.664062 C 192.890625 72.683594 193.472656 72.703125 194.058594 72.71875 C 194.265625 72.726562 194.496094 72.726562 194.734375 72.726562 C 196.324219 72.734375 198.5 72.746094 200.011719 73.988281 C 201.332031 75.074219 201.464844 76.324219 201.484375 77.308594 C 201.53125 77.464844 201.550781 77.621094 201.550781 77.78125 L 201.554688 78.769531 C 201.554688 78.929688 201.53125 79.085938 201.488281 79.242188 C 201.472656 80.226562 201.34375 81.476562 200.023438 82.5625 C 198.511719 83.800781 196.332031 83.804688 194.742188 83.808594 C 194.503906 83.808594 194.277344 83.808594 194.066406 83.8125 C 193.480469 83.828125 192.894531 83.84375 192.304688 83.859375 C 190.886719 83.902344 189.421875 83.945312 187.964844 83.953125 Z M 176.949219 78.222656 C 176.960938 78.460938 176.964844 78.679688 176.964844 78.871094 C 176.972656 79.667969 176.992188 79.683594 177.179688 79.835938 C 177.738281 80.300781 179.265625 80.304688 180.273438 80.3125 C 180.542969 80.3125 180.796875 80.3125 181.03125 80.320312 C 181.621094 80.335938 182.210938 80.355469 182.804688 80.375 C 184.203125 80.421875 185.652344 80.46875 187.074219 80.484375 L 187.957031 80.488281 C 189.363281 80.476562 190.808594 80.4375 192.207031 80.394531 C 192.800781 80.378906 193.394531 80.363281 193.980469 80.347656 C 194.214844 80.34375 194.472656 80.339844 194.742188 80.339844 C 195.75 80.339844 197.269531 80.339844 197.824219 79.882812 C 198.003906 79.734375 198.023438 79.722656 198.027344 78.929688 C 198.027344 78.738281 198.03125 78.519531 198.039062 78.28125 C 198.027344 78.042969 198.027344 77.824219 198.023438 77.632812 C 198.019531 76.835938 198 76.820312 197.8125 76.667969 C 197.25 76.207031 195.726562 76.199219 194.71875 76.191406 C 194.449219 76.191406 194.191406 76.191406 193.957031 76.183594 C 193.371094 76.167969 192.78125 76.148438 192.1875 76.128906 C 190.789062 76.082031 189.339844 76.035156 187.917969 76.019531 L 187.03125 76.019531 C 185.628906 76.027344 184.183594 76.070312 182.785156 76.109375 C 182.1875 76.125 181.597656 76.140625 181.007812 76.15625 C 180.773438 76.164062 180.519531 76.164062 180.25 76.164062 C 179.242188 76.164062 177.71875 76.167969 177.164062 76.621094 C 176.984375 76.769531 176.96875 76.785156 176.964844 77.574219 C 176.960938 77.769531 176.960938 77.984375 176.949219 78.222656 Z M 176.949219 78.222656 "/></g></g></svg>